<svg width="24" height="24" viewBox="0 0 24 24" fill="none" xmlns="http://www.w3.org/2000/svg">
<g clip-path="url(#clip0_4009_26159)">
<path d="M12.0014 0C5.3722 0 0 5.3722 0 12.0014H24C24 5.3722 18.6278 0 12.0014 0Z" fill="#FFCB64"/>
<path d="M19.4014 12.0014H0C0 17.021 3.08283 21.321 7.45965 23.1098C7.90331 16.9015 13.0793 12.0014 19.4014 12.0014Z" fill="#7FCCDF"/>
<path d="M19.4014 12.0014C13.0793 12.0014 7.90622 16.9015 7.45972 23.1099C8.86178 23.6843 10.3918 24 11.9986 24C13.9354 24 15.764 23.5393 17.3851 22.7231C16.8817 21.7249 16.5973 20.5958 16.5973 19.4014C16.5973 16.0142 18.8724 13.1618 21.978 12.2801C22.6208 12.0981 23.2976 11.9986 23.9972 11.9986H19.3986L19.4014 12.0014Z" fill="#232A5E"/>
<path d="M22.2567 12.3456C22.7942 12.1237 23.3829 11.9986 24 11.9986C23.3004 11.9986 22.6236 12.0981 21.9808 12.2801C18.8752 13.1589 16.6001 16.0142 16.6001 19.4014C16.6001 20.5958 16.8845 21.7249 17.3879 22.7231C18.7444 22.0405 19.9559 21.1077 20.957 19.9844C20.0185 19.1454 19.427 17.9311 19.427 16.5745C19.427 14.6662 20.5987 13.0309 22.2595 12.3456H22.2567Z" fill="#436CFC"/>
<path d="M22.2566 12.3455C20.5958 13.0309 19.4241 14.6662 19.4241 16.5745C19.4241 17.931 20.0185 19.1454 20.9541 19.9843C22.6576 18.0732 23.7582 15.6132 23.9602 12.9029C23.9829 12.6043 23.9971 12.3057 23.9971 12.0014C23.38 12.0014 22.7913 12.1265 22.2538 12.3484L22.2566 12.3455Z" fill="#7FCCDF"/>
<path d="M4.59863 12.0014C4.59863 7.91469 7.91182 4.6015 11.9986 4.6015C16.0853 4.6015 19.3985 7.91469 19.3985 12.0014H4.59863Z" fill="#FE8823"/>
</g>
<defs>
<clipPath id="clip0_4009_26159">
<rect width="24" height="24" fill="white"/>
</clipPath>
</defs>
</svg>

